<svg width="500" height="300" viewBox="0 0 500 300" fill="none" xmlns="http://www.w3.org/2000/svg">
<path fill-rule="evenodd" clip-rule="evenodd" d="M345.997 164C339.212 210.938 298.817 247 250 247C201.183 247 160.788 210.938 154.003 164H138.866C145.756 219.248 192.885 262 250 262C307.115 262 354.244 219.248 361.133 164H345.997ZM154.003 136C160.788 89.0622 201.183 53 250 53C298.817 53 339.212 89.0622 345.997 136H361.133C354.244 80.7516 307.115 38 250 38C192.885 38 145.756 80.7516 138.866 136H154.003Z" fill="white"/>
<path fill-rule="evenodd" clip-rule="evenodd" d="M150.208 171.208L167.328 188.328L177.935 177.722L150.213 150L150.208 150.005L150.203 150L123 177.203L133.607 187.81L150.208 171.208Z" fill="white"/>
<path fill-rule="evenodd" clip-rule="evenodd" d="M348.727 129.12L331.607 112L321 122.606L348.722 150.328L348.727 150.323L348.732 150.328L375.935 123.125L365.328 112.518L348.727 129.12Z" fill="white"/>
</svg>
