<svg width="696" height="1253" viewBox="0 0 696 1253" fill="none" xmlns="http://www.w3.org/2000/svg">
<path fill-rule="evenodd" clip-rule="evenodd" d="M556.521 206.743C564.038 206.977 576.464 206.545 576.464 206.545C576.464 206.545 589.532 214.905 588.486 236.848C587.441 258.792 576.464 267.151 576.464 267.151C576.464 267.151 599.463 257.225 618.804 236.848C638.145 216.472 643.26 202.874 648.093 183.03C665.526 105.76 589.933 69.4106 529.188 46.4301C525.373 44.5147 520.621 41.8992 515.426 39.0406C502.922 32.1587 487.857 23.8679 477.147 20.5454C461.988 15.843 436.819 12.087 408.07 24.1037C346.982 51.3787 326.091 117.196 313.536 177.809C311.972 183.477 310.626 194.558 309.172 206.535C306.74 226.572 304.003 249.12 299.423 253.045C297.12 255.018 291.763 258.75 284.769 263.623C269.538 274.234 246.544 290.253 230.424 305.292C180.856 357.047 164.596 444.286 151.537 514.353C150.818 518.215 150.108 522.025 149.402 525.774C148.356 540.403 124.312 674.678 121.175 689.307C119.586 696.719 111.904 708.02 103.379 720.56C98.0999 728.326 92.4973 736.568 87.8178 744.657H214.591C219.306 739.399 225.277 735.662 232.954 734.902C274.725 730.766 249.308 800.231 239.916 808.925C233.303 815.046 243.366 823.185 255.35 825.536C270.982 828.078 289.813 814.555 289.813 814.555C289.813 814.555 286.426 828.031 311.008 825.524C331.198 823.465 345.603 796.774 348.74 774.83C350.708 756.951 342.502 744.969 337.874 738.211C335.13 734.204 333.643 732.034 336.283 731.56C396.79 720.704 386.08 797.779 376.687 806.473C370.074 812.594 380.137 820.734 392.121 823.084C407.753 825.626 426.585 812.103 426.585 812.103C426.585 812.103 423.197 825.579 447.779 823.072C467.969 821.013 482.374 794.323 485.511 772.379C490.439 742.188 472.308 727.686 456.844 715.317C444.46 705.412 433.786 696.876 438.035 682.745C440.302 675.205 446.03 662.481 452.825 647.382C470.463 608.197 495.298 553.022 485.511 530.998C481.214 521.327 489.19 506.267 499.871 486.102C521.307 445.63 553.635 384.595 519.487 305.292C506.487 275.097 491.527 266.711 483 261.931C479.87 260.177 477.607 258.908 476.624 257.225C472.965 250.955 485.511 248.343 485.511 248.343C485.511 248.343 512.692 250.432 525.76 248.343C538.828 246.253 559.747 237.852 564.974 222.178C569.403 208.895 559.612 207.009 556.521 206.743ZM195.801 801.951H63.9212C50.5931 839.258 41.342 874.981 40.1306 906.066C38.8265 939.53 42.8505 967.787 61.3556 1024.03C75.8823 969.36 91.1833 917.051 113.648 864.687C113.648 864.687 90.6624 980.709 91.4083 1039.03C92.1255 1095.1 153.312 1157.23 153.312 1157.23C153.312 1157.23 146.633 997.571 150.814 892.492C173.802 946.796 180.726 1063.78 180.726 1063.78C180.726 1063.78 227.905 994.002 217.076 919.047C214.621 902.058 210.589 885.922 206.689 870.312C200.789 846.703 195.19 824.294 195.801 801.951Z" fill="#4BA5F3"/>
<path d="M576.464 206.545L579.159 202.333L577.847 201.493L576.29 201.548L576.464 206.545ZM556.521 206.743L556.677 201.745L556.092 211.724L556.521 206.743ZM588.486 236.848L583.492 236.61L583.492 236.61L588.486 236.848ZM576.464 267.151L573.435 263.173L578.446 271.741L576.464 267.151ZM618.804 236.848L615.178 233.405L615.178 233.405L618.804 236.848ZM648.093 183.03L652.951 184.214L652.961 184.172L652.971 184.131L648.093 183.03ZM529.188 46.4301L526.945 50.8986L527.177 51.0149L527.419 51.1067L529.188 46.4301ZM515.426 39.0406L513.016 43.4211L513.016 43.4211L515.426 39.0406ZM477.147 20.5454L478.629 15.7699L478.629 15.7699L477.147 20.5454ZM408.07 24.1037L406.142 19.4905L406.086 19.5137L406.031 19.5381L408.07 24.1037ZM313.536 177.809L318.356 179.139L318.399 178.982L318.432 178.823L313.536 177.809ZM309.172 206.535L314.136 207.138L314.136 207.138L309.172 206.535ZM299.423 253.045L302.676 256.842L302.677 256.841L299.423 253.045ZM284.769 263.623L287.627 267.725L287.627 267.725L284.769 263.623ZM230.424 305.292L227.013 301.636L226.911 301.732L226.813 301.833L230.424 305.292ZM151.537 514.353L146.622 513.437L146.622 513.437L151.537 514.353ZM149.402 525.774L144.488 524.849L144.435 525.131L144.415 525.417L149.402 525.774ZM121.175 689.307L116.286 688.258L116.286 688.258L121.175 689.307ZM103.379 720.56L107.514 723.371L107.514 723.371L103.379 720.56ZM87.8178 744.657L83.4899 742.153L79.1489 749.657H87.8178V744.657ZM214.591 744.657V749.657H216.823L218.314 747.995L214.591 744.657ZM232.954 734.902L233.447 739.877L233.447 739.877L232.954 734.902ZM239.916 808.925L236.519 805.256L236.519 805.256L239.916 808.925ZM255.35 825.536L254.387 830.442L254.467 830.458L254.547 830.471L255.35 825.536ZM289.813 814.555L294.663 815.774L297.993 802.526L286.897 810.494L289.813 814.555ZM311.008 825.524L311.515 830.498L311.515 830.498L311.008 825.524ZM348.74 774.83L353.69 775.538L353.701 775.458L353.71 775.377L348.74 774.83ZM337.874 738.211L341.999 735.386L341.999 735.386L337.874 738.211ZM336.283 731.56L337.166 736.481L337.166 736.481L336.283 731.56ZM376.687 806.473L373.29 802.804L373.29 802.804L376.687 806.473ZM392.121 823.084L391.159 827.99L391.238 828.006L391.318 828.019L392.121 823.084ZM426.585 812.103L431.434 813.323L434.765 800.074L423.668 808.042L426.585 812.103ZM447.779 823.072L447.272 818.098L447.272 818.098L447.779 823.072ZM485.511 772.379L480.577 771.573L480.569 771.622L480.562 771.671L485.511 772.379ZM456.844 715.317L453.721 719.222L453.721 719.222L456.844 715.317ZM438.035 682.745L442.823 684.185L442.823 684.185L438.035 682.745ZM452.825 647.382L448.266 645.33L448.266 645.33L452.825 647.382ZM485.511 530.998L480.942 533.028L480.942 533.028L485.511 530.998ZM499.871 486.102L504.289 488.442L504.289 488.442L499.871 486.102ZM519.487 305.292L514.895 307.269L514.895 307.269L519.487 305.292ZM483 261.931L485.445 257.57L485.445 257.57L483 261.931ZM476.624 257.225L472.306 259.745L472.306 259.745L476.624 257.225ZM485.511 248.343L485.894 243.357L485.187 243.303L484.492 243.448L485.511 248.343ZM525.76 248.343L526.549 253.28L526.55 253.28L525.76 248.343ZM564.974 222.178L560.23 220.596L560.23 220.596L564.974 222.178ZM63.9212 801.951V796.951H60.398L59.2127 800.269L63.9212 801.951ZM195.801 801.951L200.799 802.087L200.939 796.951H195.801V801.951ZM40.1306 906.066L35.1344 905.872L35.1344 905.872L40.1306 906.066ZM61.3556 1024.03L56.606 1025.6L61.866 1041.59L66.1879 1025.32L61.3556 1024.03ZM113.648 864.687L118.553 865.659L109.053 862.716L113.648 864.687ZM91.4083 1039.03L96.4079 1038.97L91.4083 1039.03ZM153.312 1157.23L149.75 1160.73L158.85 1169.97L158.308 1157.02L153.312 1157.23ZM150.814 892.492L155.418 890.542L145.818 892.293L150.814 892.492ZM180.726 1063.78L175.735 1064.07L176.606 1078.8L184.868 1066.58L180.726 1063.78ZM217.076 919.047L212.127 919.762L212.127 919.762L217.076 919.047ZM206.689 870.312L211.54 869.1L211.54 869.1L206.689 870.312ZM576.464 206.545C576.29 201.548 576.29 201.548 576.29 201.548C576.29 201.548 576.29 201.548 576.29 201.548C576.29 201.548 576.289 201.548 576.289 201.548C576.288 201.548 576.286 201.548 576.283 201.548C576.277 201.548 576.269 201.548 576.258 201.549C576.235 201.55 576.201 201.551 576.155 201.552C576.065 201.555 575.93 201.56 575.755 201.565C575.406 201.577 574.897 201.592 574.261 201.611C572.991 201.647 571.218 201.693 569.214 201.733C565.18 201.811 560.301 201.858 556.677 201.745L556.365 211.74C560.259 211.862 565.352 211.81 569.409 211.731C571.451 211.691 573.255 211.644 574.549 211.606C575.196 211.588 575.717 211.572 576.076 211.56C576.256 211.554 576.395 211.55 576.49 211.547C576.538 211.545 576.574 211.544 576.599 211.543C576.612 211.543 576.621 211.542 576.628 211.542C576.631 211.542 576.633 211.542 576.635 211.542C576.636 211.542 576.637 211.542 576.637 211.542C576.637 211.542 576.638 211.542 576.638 211.542C576.638 211.542 576.638 211.542 576.464 206.545ZM593.481 237.086C594.056 225.015 590.738 216.411 587.062 210.746C585.241 207.94 583.364 205.901 581.899 204.536C581.166 203.853 580.534 203.336 580.059 202.974C579.822 202.792 579.624 202.649 579.471 202.543C579.395 202.49 579.33 202.446 579.278 202.411C579.252 202.393 579.229 202.378 579.209 202.365C579.199 202.359 579.19 202.353 579.181 202.347C579.177 202.345 579.173 202.342 579.169 202.34C579.168 202.338 579.165 202.337 579.164 202.336C579.161 202.334 579.159 202.333 576.464 206.545C573.77 210.757 573.767 210.755 573.765 210.753C573.764 210.753 573.762 210.751 573.76 210.75C573.757 210.748 573.754 210.747 573.752 210.745C573.747 210.742 573.742 210.739 573.739 210.736C573.731 210.732 573.727 210.729 573.725 210.728C573.722 210.726 573.731 210.731 573.75 210.745C573.789 210.772 573.87 210.83 573.988 210.92C574.224 211.1 574.605 211.408 575.081 211.851C576.033 212.739 577.357 214.162 578.673 216.189C581.269 220.19 583.963 226.737 583.492 236.61L593.481 237.086ZM576.464 267.151C579.493 271.129 579.496 271.127 579.498 271.125C579.499 271.124 579.502 271.122 579.503 271.121C579.507 271.118 579.511 271.115 579.514 271.113C579.522 271.107 579.53 271.1 579.539 271.093C579.557 271.079 579.578 271.063 579.601 271.045C579.648 271.008 579.705 270.962 579.771 270.907C579.904 270.798 580.075 270.652 580.279 270.468C580.688 270.101 581.229 269.583 581.861 268.903C583.124 267.541 584.747 265.531 586.381 262.784C589.664 257.265 592.918 248.896 593.481 237.085L583.492 236.61C583.009 246.743 580.253 253.526 577.786 257.672C576.545 259.758 575.358 261.209 574.531 262.101C574.117 262.547 573.793 262.853 573.597 263.029C573.499 263.117 573.433 263.172 573.405 263.196C573.39 263.207 573.385 263.211 573.39 263.207C573.393 263.205 573.398 263.202 573.405 263.196C573.409 263.193 573.413 263.19 573.418 263.186C573.421 263.184 573.423 263.182 573.426 263.18C573.427 263.178 573.43 263.177 573.43 263.176C573.433 263.174 573.435 263.173 576.464 267.151ZM615.178 233.405C605.892 243.189 595.683 250.505 587.76 255.383C583.808 257.816 580.45 259.627 578.095 260.824C576.919 261.421 575.995 261.864 575.375 262.154C575.065 262.298 574.832 262.404 574.681 262.472C574.606 262.506 574.551 262.53 574.517 262.545C574.501 262.552 574.49 262.557 574.484 262.56C574.481 262.561 574.479 262.561 574.479 262.562C574.479 262.562 574.479 262.561 574.48 262.561C574.48 262.561 574.481 262.561 574.481 262.561C574.482 262.56 574.483 262.56 576.464 267.151C578.446 271.741 578.447 271.741 578.448 271.74C578.448 271.74 578.45 271.74 578.451 271.739C578.453 271.738 578.455 271.737 578.458 271.736C578.463 271.734 578.47 271.731 578.478 271.727C578.495 271.72 578.517 271.71 578.544 271.698C578.599 271.674 578.676 271.64 578.774 271.596C578.969 271.509 579.248 271.382 579.605 271.215C580.319 270.882 581.343 270.39 582.625 269.739C585.187 268.437 588.787 266.494 593.003 263.898C601.415 258.719 612.376 250.883 622.431 240.29L615.178 233.405ZM643.235 181.847C640.849 191.642 638.471 199.558 634.435 207.467C630.407 215.36 624.611 223.468 615.178 233.405L622.431 240.29C632.339 229.852 638.77 220.972 643.343 212.012C647.907 203.067 650.503 194.262 652.951 184.214L643.235 181.847ZM527.419 51.1067C557.765 62.5867 591.072 77.1554 614.635 98.1081C637.911 118.805 651.445 145.456 643.216 181.93L652.971 184.131C662.174 143.335 646.628 113.175 621.28 90.6352C596.219 68.3504 561.357 53.254 530.957 41.7536L527.419 51.1067ZM513.016 43.4211C518.18 46.2632 523.026 48.9313 526.945 50.8986L531.432 41.9617C527.72 40.0982 523.061 37.5353 517.837 34.6602L513.016 43.4211ZM475.666 25.3209C485.775 28.4569 500.319 36.4332 513.016 43.4211L517.837 34.6602C505.525 27.8842 489.94 19.2789 478.629 15.7699L475.666 25.3209ZM409.998 28.717C437.362 17.2791 461.268 20.8547 475.666 25.3209L478.629 15.7699C462.708 10.8314 436.276 6.89487 406.142 19.4905L409.998 28.717ZM318.432 178.823C331.008 118.107 351.554 54.8128 410.108 28.6693L406.031 19.5381C342.409 47.9445 321.173 116.285 308.64 176.795L318.432 178.823ZM314.136 207.138C315.618 194.934 316.918 184.35 318.356 179.139L308.716 176.478C307.026 182.605 305.635 194.182 304.209 205.933L314.136 207.138ZM302.677 256.841C303.976 255.728 304.878 254.274 305.525 252.985C306.205 251.633 306.789 250.079 307.305 248.442C308.337 245.168 309.228 241.118 310.023 236.722C311.615 227.917 312.925 217.113 314.136 207.138L304.209 205.933C302.987 215.995 301.712 226.483 300.183 234.943C299.417 239.179 298.613 242.754 297.768 245.437C297.345 246.779 296.945 247.788 296.589 248.497C296.201 249.271 296.015 249.38 296.17 249.248L302.677 256.841ZM287.627 267.725C294.474 262.955 300.128 259.025 302.676 256.842L296.17 249.248C294.113 251.01 289.052 254.545 281.911 259.52L287.627 267.725ZM233.835 308.948C249.644 294.2 272.321 278.389 287.627 267.725L281.911 259.52C266.755 270.079 243.444 286.307 227.013 301.636L233.835 308.948ZM156.453 515.269C162.992 480.186 170.27 441.171 182.05 404.484C193.836 367.781 209.999 333.847 234.035 308.75L226.813 301.833C201.281 328.492 184.53 364.055 172.529 401.427C160.523 438.815 153.142 478.454 146.622 513.437L156.453 515.269ZM154.316 526.698C155.022 522.944 155.733 519.13 156.453 515.269L146.622 513.437C145.902 517.3 145.193 521.105 144.488 524.849L154.316 526.698ZM126.064 690.355C127.657 682.926 134.471 645.586 140.998 608.405C147.495 571.384 153.843 533.778 154.389 526.13L144.415 525.417C143.916 532.398 137.718 569.244 131.148 606.676C124.606 643.946 117.83 681.058 116.286 688.258L126.064 690.355ZM107.514 723.371C111.753 717.135 115.894 711.047 119.168 705.579C122.374 700.223 125.082 694.934 126.064 690.355L116.286 688.258C115.679 691.092 113.751 695.159 110.588 700.442C107.492 705.613 103.53 711.445 99.244 717.75L107.514 723.371ZM92.1458 747.161C96.7183 739.257 102.214 731.168 107.514 723.371L99.244 717.75C93.9853 725.485 88.2764 733.88 83.4899 742.153L92.1458 747.161ZM214.591 739.657H87.8178V749.657H214.591V739.657ZM232.461 729.926C223.289 730.834 216.233 735.338 210.869 741.319L218.314 747.995C222.38 743.461 227.264 740.489 233.447 739.877L232.461 729.926ZM243.312 812.594C245.095 810.944 246.832 808.326 248.398 805.506C250.034 802.559 251.723 798.949 253.31 794.957C256.478 786.995 259.362 777.215 260.58 767.74C261.775 758.452 261.489 748.57 257.363 741.087C255.23 737.217 252.077 734.013 247.732 732.001C243.44 730.014 238.326 729.345 232.461 729.926L233.447 739.877C238.025 739.424 241.253 740.021 243.53 741.076C245.754 742.105 247.395 743.718 248.606 745.914C251.17 750.564 251.774 757.816 250.662 766.464C249.574 774.926 246.953 783.883 244.018 791.261C242.555 794.94 241.044 798.151 239.655 800.651C238.196 803.278 237.085 804.732 236.519 805.256L243.312 812.594ZM256.312 820.629C250.963 819.58 246.439 817.287 244.141 815.057C242.988 813.937 242.827 813.263 242.816 813.172C242.814 813.159 242.816 813.167 242.814 813.189C242.811 813.21 242.806 813.217 242.813 813.201C242.824 813.174 242.919 812.958 243.312 812.594L236.519 805.256C233.907 807.673 232.462 810.846 232.888 814.372C233.279 817.603 235.142 820.258 237.176 822.232C241.253 826.189 247.752 829.141 254.387 830.442L256.312 820.629ZM289.813 814.555C286.897 810.494 286.898 810.493 286.899 810.493C286.899 810.492 286.9 810.492 286.9 810.492C286.901 810.491 286.901 810.491 286.901 810.491C286.902 810.491 286.901 810.491 286.899 810.493C286.895 810.495 286.887 810.501 286.874 810.51C286.849 810.528 286.806 810.558 286.746 810.599C286.627 810.682 286.441 810.81 286.194 810.975C285.699 811.306 284.96 811.787 284.02 812.362C282.133 813.515 279.466 815.026 276.355 816.456C269.936 819.407 262.456 821.626 256.152 820.6L254.547 830.471C263.876 831.988 273.627 828.716 280.532 825.542C284.083 823.909 287.101 822.198 289.234 820.895C290.303 820.242 291.157 819.686 291.753 819.287C292.051 819.088 292.286 818.928 292.45 818.813C292.532 818.756 292.597 818.711 292.644 818.678C292.667 818.661 292.686 818.648 292.701 818.637C292.708 818.632 292.714 818.628 292.719 818.625C292.721 818.623 292.723 818.621 292.725 818.62C292.726 818.619 292.727 818.618 292.728 818.618C292.729 818.617 292.73 818.617 289.813 814.555ZM310.501 820.549C298.806 821.742 295.866 818.904 295.234 818.036C294.836 817.489 294.69 816.893 294.661 816.35C294.646 816.082 294.663 815.865 294.679 815.738C294.686 815.678 294.692 815.645 294.692 815.648C294.692 815.649 294.69 815.66 294.685 815.68C294.683 815.691 294.68 815.704 294.676 815.719C294.674 815.727 294.672 815.736 294.67 815.745C294.669 815.749 294.668 815.754 294.666 815.759C294.666 815.761 294.665 815.765 294.665 815.767C294.664 815.77 294.663 815.774 289.813 814.555C284.964 813.336 284.963 813.34 284.962 813.344C284.962 813.346 284.961 813.35 284.96 813.353C284.959 813.358 284.957 813.364 284.956 813.371C284.953 813.383 284.95 813.396 284.946 813.411C284.939 813.439 284.932 813.471 284.924 813.507C284.908 813.579 284.89 813.665 284.871 813.764C284.833 813.963 284.79 814.217 284.753 814.52C284.679 815.121 284.624 815.937 284.676 816.893C284.779 818.798 285.323 821.414 287.151 823.924C290.97 829.166 298.628 831.812 311.515 830.498L310.501 820.549ZM343.79 774.123C342.32 784.408 338.185 795.842 332.122 804.84C325.995 813.935 318.483 819.735 310.501 820.549L311.515 830.498C323.723 829.253 333.509 820.679 340.415 810.428C347.387 800.08 352.023 787.197 353.69 775.538L343.79 774.123ZM333.749 741.036C338.305 747.69 345.524 758.341 343.77 774.283L353.71 775.377C355.891 755.56 346.699 742.248 341.999 735.386L333.749 741.036ZM335.4 726.639C334.233 726.848 331.979 727.487 330.684 729.766C329.408 732.012 329.997 734.228 330.338 735.207C330.723 736.311 331.335 737.363 331.856 738.198C332.408 739.08 333.081 740.062 333.749 741.036L341.999 735.386C341.295 734.357 340.753 733.565 340.336 732.898C339.89 732.184 339.78 731.913 339.78 731.913C339.788 731.935 339.887 732.214 339.901 732.67C339.915 733.169 339.825 733.922 339.38 734.705C338.932 735.493 338.325 735.962 337.872 736.209C337.46 736.433 337.169 736.481 337.166 736.481L335.4 726.639ZM380.083 810.142C382.171 808.211 383.695 805.102 384.822 802.039C386.025 798.769 387.047 794.775 387.777 790.395C389.233 781.657 389.598 770.931 387.604 760.726C385.617 750.553 381.173 740.383 372.55 733.545C363.793 726.6 351.552 723.74 335.4 726.639L337.166 736.481C351.267 733.951 360.378 736.655 366.336 741.38C372.43 746.212 376.066 753.819 377.79 762.644C379.508 771.438 379.216 780.932 377.913 788.752C377.263 792.65 376.381 796.019 375.437 798.586C374.965 799.87 374.5 800.889 374.079 801.645C373.87 802.019 373.687 802.301 373.538 802.504C373.465 802.604 373.405 802.678 373.36 802.729C373.338 802.754 373.321 802.773 373.309 802.785C373.297 802.798 373.29 802.804 373.29 802.804L380.083 810.142ZM393.083 818.177C387.735 817.128 383.211 814.835 380.913 812.605C379.759 811.485 379.598 810.811 379.587 810.72C379.586 810.707 379.588 810.716 379.585 810.737C379.582 810.759 379.578 810.765 379.584 810.75C379.595 810.722 379.691 810.506 380.083 810.142L373.29 802.804C370.678 805.222 369.233 808.394 369.66 811.921C370.05 815.151 371.914 817.806 373.948 819.78C378.024 823.737 384.524 826.689 391.159 827.99L393.083 818.177ZM426.585 812.103C423.668 808.042 423.669 808.041 423.67 808.041C423.67 808.041 423.671 808.04 423.671 808.04C423.672 808.039 423.673 808.039 423.673 808.039C423.673 808.039 423.672 808.039 423.67 808.041C423.666 808.044 423.658 808.049 423.645 808.058C423.62 808.076 423.577 808.106 423.518 808.148C423.399 808.23 423.213 808.358 422.966 808.523C422.471 808.854 421.732 809.335 420.791 809.91C418.904 811.063 416.237 812.574 413.126 814.004C406.707 816.955 399.227 819.174 392.924 818.149L391.318 828.019C400.647 829.536 410.399 826.265 417.304 823.09C420.854 821.457 423.873 819.746 426.005 818.443C427.074 817.79 427.929 817.234 428.525 816.836C428.823 816.636 429.057 816.476 429.221 816.362C429.304 816.305 429.368 816.259 429.415 816.226C429.439 816.209 429.458 816.196 429.472 816.186C429.479 816.181 429.485 816.176 429.49 816.173C429.493 816.171 429.495 816.169 429.497 816.168C429.497 816.167 429.499 816.167 429.499 816.166C429.5 816.165 429.501 816.165 426.585 812.103ZM447.272 818.098C435.577 819.29 432.638 816.452 432.005 815.584C431.607 815.038 431.462 814.441 431.432 813.899C431.418 813.63 431.435 813.413 431.45 813.287C431.458 813.226 431.464 813.194 431.463 813.196C431.463 813.197 431.461 813.208 431.456 813.229C431.454 813.239 431.451 813.252 431.447 813.268C431.446 813.275 431.444 813.284 431.441 813.293C431.44 813.298 431.439 813.302 431.438 813.307C431.437 813.31 431.436 813.314 431.436 813.315C431.435 813.319 431.434 813.323 426.585 812.103C421.736 810.884 421.735 810.888 421.734 810.892C421.733 810.894 421.732 810.898 421.732 810.901C421.73 810.907 421.729 810.913 421.727 810.919C421.724 810.931 421.721 810.945 421.718 810.959C421.711 810.987 421.703 811.02 421.695 811.055C421.679 811.127 421.661 811.213 421.642 811.312C421.604 811.511 421.562 811.766 421.525 812.068C421.451 812.669 421.395 813.485 421.447 814.441C421.55 816.346 422.094 818.963 423.922 821.472C427.741 826.714 435.399 829.36 448.287 828.046L447.272 818.098ZM480.562 771.671C479.091 781.956 474.956 793.39 468.894 802.388C462.766 811.483 455.255 817.284 447.272 818.098L448.287 828.046C460.494 826.801 470.28 818.227 477.187 807.976C484.158 797.628 488.794 784.745 490.461 773.086L480.562 771.671ZM453.721 719.222C461.555 725.488 469.299 731.733 474.64 739.901C479.82 747.821 482.836 757.734 480.577 771.573L490.446 773.184C493.115 756.832 489.53 744.398 483.009 734.428C476.651 724.705 467.597 717.515 459.967 711.413L453.721 719.222ZM433.247 681.305C430.604 690.096 432.707 697.35 437.139 703.53C441.309 709.345 447.694 714.402 453.721 719.222L459.967 711.413C453.61 706.328 448.466 702.164 445.265 697.702C442.327 693.604 441.218 689.524 442.823 684.185L433.247 681.305ZM448.266 645.33C441.55 660.251 435.634 673.366 433.247 681.305L442.823 684.185C444.97 677.044 450.509 664.71 457.385 649.435L448.266 645.33ZM480.942 533.028C482.817 537.247 483.247 543.694 482.06 552.28C480.893 560.727 478.26 570.583 474.712 581.165C467.616 602.331 457.108 625.687 448.266 645.33L457.385 649.435C466.181 629.893 476.91 606.069 484.193 584.344C487.836 573.481 490.679 562.966 491.966 553.649C493.235 544.47 493.099 535.76 490.08 528.967L480.942 533.028ZM495.452 483.762C490.167 493.74 485.321 502.871 482.389 510.74C479.521 518.437 477.942 526.276 480.942 533.028L490.08 528.967C488.783 526.048 489.043 521.523 491.76 514.231C494.412 507.111 498.894 498.629 504.289 488.442L495.452 483.762ZM514.895 307.269C548.034 384.231 516.875 443.315 495.452 483.762L504.289 488.442C525.739 447.946 559.236 384.959 524.08 303.314L514.895 307.269ZM480.555 266.292C484.736 268.636 490.101 271.652 496.02 277.606C501.952 283.573 508.61 292.671 514.895 307.269L524.08 303.314C517.364 287.718 510.042 277.526 503.112 270.556C496.17 263.573 489.791 260.006 485.445 257.57L480.555 266.292ZM472.306 259.745C473.342 261.521 474.856 262.76 476.162 263.663C477.478 264.573 479.057 265.453 480.555 266.292L485.445 257.57C483.813 256.655 482.696 256.023 481.851 255.439C480.997 254.848 480.888 254.612 480.942 254.704L472.306 259.745ZM485.511 248.343C484.492 243.448 484.491 243.448 484.489 243.448C484.489 243.448 484.487 243.449 484.486 243.449C484.484 243.449 484.482 243.45 484.479 243.45C484.474 243.451 484.469 243.453 484.462 243.454C484.449 243.457 484.433 243.46 484.414 243.464C484.375 243.473 484.325 243.484 484.264 243.498C484.142 243.525 483.975 243.565 483.771 243.615C483.364 243.717 482.801 243.867 482.143 244.068C480.861 244.461 479.068 245.095 477.333 246.026C475.71 246.896 473.515 248.349 472.158 250.66C470.534 253.424 470.527 256.697 472.306 259.745L480.943 254.705C480.842 254.533 480.952 254.648 480.955 254.99C480.959 255.344 480.846 255.612 480.781 255.724C480.747 255.781 481.002 255.406 482.059 254.839C483.002 254.333 484.117 253.922 485.073 253.629C485.534 253.488 485.923 253.385 486.188 253.319C486.32 253.286 486.419 253.263 486.478 253.249C486.508 253.243 486.528 253.238 486.537 253.236C486.541 253.235 486.543 253.235 486.542 253.235C486.542 253.235 486.54 253.236 486.538 253.236C486.537 253.236 486.536 253.236 486.535 253.237C486.534 253.237 486.533 253.237 486.533 253.237C486.532 253.237 486.53 253.238 485.511 248.343ZM524.971 243.405C518.963 244.366 509.341 244.39 500.89 244.128C496.734 244 492.977 243.806 490.258 243.645C488.9 243.565 487.803 243.492 487.049 243.44C486.672 243.414 486.38 243.393 486.184 243.379C486.086 243.372 486.012 243.366 485.964 243.363C485.939 243.361 485.921 243.359 485.91 243.359C485.904 243.358 485.9 243.358 485.897 243.358C485.896 243.357 485.895 243.357 485.894 243.357C485.894 243.357 485.894 243.357 485.894 243.357C485.894 243.357 485.894 243.357 485.511 248.343C485.128 253.328 485.128 253.328 485.129 253.328C485.129 253.328 485.13 253.328 485.13 253.328C485.132 253.328 485.133 253.328 485.135 253.328C485.139 253.329 485.145 253.329 485.152 253.33C485.167 253.331 485.188 253.332 485.215 253.335C485.27 253.339 485.351 253.345 485.455 253.352C485.664 253.368 485.969 253.389 486.36 253.416C487.143 253.47 488.272 253.545 489.666 253.628C492.453 253.793 496.307 253.991 500.58 254.124C508.987 254.384 519.489 254.409 526.549 253.28L524.971 243.405ZM560.23 220.596C558.164 226.792 552.808 232 545.816 236.02C538.887 240.002 530.98 242.444 524.971 243.405L526.55 253.28C533.609 252.151 542.695 249.348 550.799 244.689C558.84 240.067 566.556 233.238 569.717 223.76L560.23 220.596ZM556.092 211.724C557.358 211.833 559.123 212.254 560.125 213.205C560.508 213.569 560.868 214.087 561.025 215.026C561.196 216.049 561.161 217.806 560.23 220.596L569.717 223.76C571.001 219.908 571.403 216.45 570.888 213.374C570.358 210.215 568.908 207.755 567.01 205.953C563.451 202.574 558.775 201.918 556.951 201.761L556.092 211.724ZM63.9212 806.951H195.801V796.951H63.9212V806.951ZM45.1268 906.261C46.3091 875.922 55.3671 840.757 68.6298 803.633L59.2127 800.269C45.8191 837.759 36.3749 874.039 35.1344 905.872L45.1268 906.261ZM66.1052 1022.47C47.7138 966.571 43.8535 938.934 45.1268 906.261L35.1344 905.872C33.7995 940.126 37.9872 969.004 56.606 1025.6L66.1052 1022.47ZM109.053 862.716C86.4409 915.423 71.0658 968.016 56.5233 1022.75L66.1879 1025.32C80.6988 970.703 95.9257 918.679 118.243 866.658L109.053 862.716ZM96.4079 1038.97C96.041 1010.28 101.533 967.069 107.189 930.758C110.008 912.662 112.85 896.38 114.988 884.621C116.057 878.743 116.949 873.997 117.574 870.723C117.886 869.087 118.131 867.818 118.298 866.96C118.382 866.53 118.446 866.204 118.489 865.985C118.51 865.876 118.526 865.794 118.537 865.739C118.543 865.712 118.547 865.691 118.549 865.678C118.551 865.671 118.552 865.666 118.552 865.663C118.553 865.661 118.553 865.66 118.553 865.66C118.553 865.659 118.553 865.659 113.648 864.687C108.744 863.715 108.744 863.716 108.743 863.717C108.743 863.718 108.743 863.72 108.742 863.722C108.742 863.725 108.741 863.731 108.739 863.738C108.736 863.753 108.732 863.775 108.726 863.804C108.715 863.861 108.698 863.946 108.676 864.058C108.632 864.282 108.567 864.614 108.483 865.049C108.313 865.919 108.066 867.2 107.751 868.849C107.121 872.148 106.224 876.922 105.149 882.832C103 894.651 100.143 911.019 97.3082 929.219C91.6573 965.5 86.0298 1009.47 86.4088 1039.1L96.4079 1038.97ZM153.312 1157.23C156.874 1153.72 156.875 1153.72 156.875 1153.72C156.875 1153.72 156.875 1153.72 156.874 1153.72C156.874 1153.72 156.872 1153.71 156.869 1153.71C156.864 1153.71 156.855 1153.7 156.842 1153.68C156.817 1153.66 156.777 1153.62 156.723 1153.56C156.616 1153.45 156.453 1153.28 156.238 1153.06C155.807 1152.61 155.168 1151.93 154.35 1151.05C152.714 1149.28 150.363 1146.68 147.535 1143.39C141.875 1136.79 134.323 1127.42 126.759 1116.34C111.488 1093.97 96.7467 1065.46 96.4079 1038.97L86.4088 1039.1C86.7871 1068.68 102.998 1099.27 118.499 1121.97C126.321 1133.43 134.111 1143.1 139.945 1149.9C142.865 1153.3 145.3 1155.99 147.013 1157.84C147.869 1158.77 148.545 1159.48 149.011 1159.97C149.244 1160.21 149.425 1160.4 149.549 1160.53C149.611 1160.59 149.659 1160.64 149.693 1160.68C149.71 1160.69 149.723 1160.71 149.732 1160.72C149.737 1160.72 149.741 1160.72 149.744 1160.73C149.745 1160.73 149.747 1160.73 149.747 1160.73C149.749 1160.73 149.75 1160.73 153.312 1157.23ZM145.818 892.293C143.721 944.992 144.348 1011.3 145.496 1064.37C146.07 1090.92 146.775 1114.18 147.336 1130.81C147.617 1139.12 147.862 1145.77 148.037 1150.35C148.124 1152.64 148.194 1154.41 148.242 1155.61C148.266 1156.21 148.284 1156.66 148.297 1156.97C148.303 1157.12 148.308 1157.24 148.311 1157.32C148.313 1157.35 148.314 1157.38 148.315 1157.4C148.315 1157.41 148.316 1157.42 148.316 1157.43C148.316 1157.43 148.316 1157.43 148.316 1157.43C148.316 1157.43 148.316 1157.43 153.312 1157.23C158.308 1157.02 158.307 1157.02 158.307 1157.01C158.307 1157.01 158.307 1157.01 158.307 1157.01C158.307 1157 158.307 1157 158.306 1156.99C158.306 1156.97 158.304 1156.94 158.303 1156.9C158.3 1156.83 158.295 1156.71 158.289 1156.56C158.276 1156.26 158.258 1155.8 158.234 1155.21C158.186 1154.01 158.117 1152.25 158.029 1149.97C157.855 1145.4 157.611 1138.77 157.331 1130.47C156.77 1113.87 156.067 1090.65 155.494 1064.16C154.347 1011.13 153.726 945.07 155.81 892.69L145.818 892.293ZM180.726 1063.78C185.717 1063.48 185.717 1063.48 185.717 1063.48C185.717 1063.48 185.717 1063.48 185.717 1063.48C185.717 1063.47 185.716 1063.47 185.716 1063.46C185.715 1063.44 185.714 1063.42 185.712 1063.39C185.708 1063.33 185.703 1063.25 185.696 1063.13C185.682 1062.9 185.661 1062.57 185.632 1062.13C185.575 1061.25 185.489 1059.96 185.371 1058.29C185.135 1054.97 184.773 1050.16 184.267 1044.23C183.254 1032.36 181.664 1015.97 179.35 997.866C174.748 961.848 167.21 918.399 155.418 890.542L146.209 894.441C157.406 920.889 164.824 963.083 169.431 999.133C171.722 1017.06 173.299 1033.31 174.303 1045.08C174.805 1050.96 175.163 1055.72 175.396 1059C175.513 1060.64 175.597 1061.91 175.653 1062.77C175.681 1063.2 175.702 1063.53 175.715 1063.75C175.722 1063.86 175.727 1063.94 175.73 1064C175.732 1064.02 175.733 1064.04 175.734 1064.06C175.734 1064.06 175.734 1064.07 175.735 1064.07C175.735 1064.07 175.735 1064.07 175.735 1064.07C175.735 1064.07 175.735 1064.07 180.726 1063.78ZM212.127 919.762C217.371 956.054 208.581 991.313 198.303 1017.71C193.178 1030.87 187.72 1041.73 183.55 1049.29C181.467 1053.07 179.708 1056.02 178.478 1058.01C177.863 1059 177.381 1059.76 177.057 1060.26C176.895 1060.51 176.772 1060.7 176.692 1060.82C176.652 1060.88 176.623 1060.92 176.605 1060.95C176.596 1060.96 176.589 1060.97 176.586 1060.98C176.584 1060.98 176.583 1060.98 176.583 1060.98C176.583 1060.98 176.583 1060.98 176.583 1060.98C176.583 1060.98 176.584 1060.98 180.726 1063.78C184.868 1066.58 184.869 1066.58 184.87 1066.58C184.871 1066.58 184.872 1066.57 184.874 1066.57C184.876 1066.57 184.879 1066.56 184.883 1066.56C184.891 1066.54 184.902 1066.53 184.916 1066.51C184.943 1066.47 184.981 1066.41 185.03 1066.34C185.128 1066.19 185.269 1065.97 185.45 1065.7C185.811 1065.14 186.332 1064.32 186.986 1063.26C188.294 1061.14 190.137 1058.05 192.307 1054.12C196.645 1046.25 202.305 1034.99 207.621 1021.34C218.226 994.102 227.611 956.995 222.024 918.332L212.127 919.762ZM201.838 871.524C205.747 887.168 209.715 903.063 212.127 919.762L222.024 918.332C219.528 901.053 215.432 884.677 211.54 869.1L201.838 871.524ZM190.803 801.814C190.17 824.965 195.974 848.056 201.838 871.524L211.54 869.1C205.605 845.349 200.21 823.624 200.799 802.087L190.803 801.814Z" fill="#37424A"/>
<path d="M458.036 163.409C471.708 163.409 482.791 147.739 482.791 128.409C482.791 109.079 471.708 93.4092 458.036 93.4092C444.364 93.4092 433.281 109.079 433.281 128.409C433.281 147.739 444.364 163.409 458.036 163.409Z" fill="#37424A"/>
<path d="M464.464 129.957C469.435 129.957 473.464 125.704 473.464 120.457C473.464 115.21 469.435 110.957 464.464 110.957C459.494 110.957 455.464 115.21 455.464 120.457C455.464 125.704 459.494 129.957 464.464 129.957Z" fill="white"/>
<path d="M558.5 207C541.801 206.766 533.39 203.291 521 188" stroke="#37424A" stroke-width="10"/>
</svg>
