<?xml version="1.0" encoding="UTF-8" standalone="no"?>
<svg
   width="696"
   height="1253"
   viewBox="0 0 696 1253"
   fill="none"
   version="1.1"
   id="svg3"
   sodipodi:docname="perroquet_bool.svg"
   inkscape:version="1.3.2 (091e20ef0f, 2023-11-25, custom)"
   xmlns:inkscape="http://www.inkscape.org/namespaces/inkscape"
   xmlns:sodipodi="http://sodipodi.sourceforge.net/DTD/sodipodi-0.dtd"
   xmlns="http://www.w3.org/2000/svg"
   xmlns:svg="http://www.w3.org/2000/svg">
  <defs
     id="defs3" />
  <sodipodi:namedview
     id="namedview3"
     pagecolor="#ffffff"
     bordercolor="#000000"
     borderopacity="0.25"
     inkscape:showpageshadow="2"
     inkscape:pageopacity="0.0"
     inkscape:pagecheckerboard="0"
     inkscape:deskcolor="#d1d1d1"
     inkscape:zoom="0.57427651"
     inkscape:cx="72.26484"
     inkscape:cy="590.30797"
     inkscape:window-width="1904"
     inkscape:window-height="1024"
     inkscape:window-x="8"
     inkscape:window-y="48"
     inkscape:window-maximized="0"
     inkscape:current-layer="svg3" />
  <path
     id="path2"
     style="fill:#4ba5f3;fill-opacity:1"
     d="M 447.70508 16.054688 C 435.92426 16.029968 422.44479 18.095153 408.07031 24.103516 C 346.98214 51.378373 326.08942 117.19626 313.53516 177.80859 C 309.35316 192.96057 306.74081 246.77494 299.42383 253.04492 C 292.10585 259.31492 253.94577 283.34901 230.42383 305.29297 C 178.12365 359.90074 162.90536 454.01077 149.40234 525.77344 C 148.35634 540.4024 124.31278 674.67768 121.17578 689.30664 C 118.03878 703.93562 91.172935 733.70777 80.925781 758.27344 C 58.92047 811.0271 41.80926 862.99727 40.130859 906.06641 C 38.826795 939.5298 42.850412 967.78799 61.355469 1024.0352 C 75.88212 969.36045 91.183411 917.05161 113.64844 864.6875 C 113.64844 864.6875 90.662245 980.71026 91.408203 1039.0332 C 92.125361 1095.1043 153.3125 1157.2246 153.3125 1157.2246 C 153.3125 1157.2246 146.63321 997.57148 150.81445 892.49219 C 173.80305 946.79684 180.72656 1063.7793 180.72656 1063.7793 C 180.72656 1063.7793 227.90565 994.002 217.07617 919.04688 C 209.39998 865.91682 186.296 821.1308 200.02344 774.64844 C 204.89656 758.14755 213.37175 736.84094 232.95312 734.90234 C 274.72394 730.76694 249.30871 800.23153 239.91602 808.92578 C 233.30302 815.04704 243.36612 823.18496 255.34961 825.53516 C 270.98176 828.07764 289.8125 814.55469 289.8125 814.55469 C 289.8125 814.55469 286.42532 828.03042 311.00781 825.52344 C 331.19778 823.46434 345.60325 796.77404 348.74023 774.83008 C 351.87511 746.34787 329.19252 732.83278 336.2832 731.56055 C 396.79008 720.7043 386.08019 797.77839 376.6875 806.47266 C 370.07452 812.5939 380.13762 820.73381 392.12109 823.08398 C 407.75326 825.62651 426.58398 812.10352 426.58398 812.10352 C 426.58398 812.10352 423.19679 825.57931 447.7793 823.07227 C 467.96927 821.01319 482.37472 794.32285 485.51172 772.37891 C 494.38654 718.01066 428.48129 714.52222 438.03516 682.74609 C 446.18587 655.63686 499.0699 561.50903 485.51172 530.99805 C 472.58967 501.91858 570.64824 424.10846 519.48633 305.29297 C 501.71437 264.01705 480.28203 263.49359 476.62305 257.22461 C 472.96405 250.95463 485.51172 248.34375 485.51172 248.34375 C 485.51172 248.34375 512.69179 250.43275 525.75977 248.34375 C 538.82773 246.25375 559.74566 237.85171 564.97266 222.17773 C 570.19964 206.50377 555.625 206.69922 555.625 206.69922 L 555.55859 206.67773 C 562.92481 206.98439 576.46484 206.54492 576.46484 206.54492 C 576.46484 206.54492 589.53233 214.9047 588.48633 236.84766 C 587.44133 258.7916 576.46484 267.15039 576.46484 267.15039 C 576.46484 267.15039 599.46373 257.22462 618.80469 236.84766 C 638.14565 216.4717 643.26009 202.87467 648.09375 183.03125 C 665.52615 105.76135 589.93252 69.410063 529.1875 46.429688 C 516.1871 39.902927 492.30546 25.247412 477.14648 20.544922 C 469.567 18.193726 459.4859 16.079406 447.70508 16.054688 z M 458.03516 93.408203 A 24.755262 35 0 0 1 482.79102 128.4082 A 24.755262 35 0 0 1 458.03516 163.4082 A 24.755262 35 0 0 1 433.28125 128.4082 A 24.755262 35 0 0 1 458.03516 93.408203 z M 464.46484 110.95703 A 9 9.5 0 0 0 455.46484 120.45703 A 9 9.5 0 0 0 464.46484 129.95703 A 9 9.5 0 0 0 473.46484 120.45703 A 9 9.5 0 0 0 464.46484 110.95703 z " />
</svg>
